# AST/ASF file generated using VICON BodyLanguage
# -----------------------------------------------
:version 1.10
:name VICON
:units
  mass 1.0
  length 0.45
  angle deg
:documentation
   .ast/.asf automatically generated from VICON data using
   VICON BodyBuilder and BodyLanguage model FoxedUp or BRILLIANT.MOD
:root
   order TX TY TZ RX RY RZ
   axis XYZ
   position 0 0 0  
   orientation 0 0 0 
:bonedata
  begin
     id 1 
     name lhipjoint
     direction 0.623415 -0.642378 0.445763 
     length 2.49859 
     axis 0 0 0  XYZ
  end
  begin
     id 2 
     name lfemur
     direction 0.34202 -0.939693 0  
     length 6.69689  
     axis 0 0 20  XYZ
    dof rx ry rz
    limits (-160.0 20.0)
           (-70.0 70.0)
           (-60.0 70.0)
  end
  begin
     id 3 
     name ltibia
     direction 0.34202 -0.939693 0   
     length 7.37574   
     axis 0 0 20   XYZ
    dof rx
    limits (-10.0 170.0)
  end
  begin
     id 4 
     name lfoot
     direction 0.084323 -0.231675 0.969132   
     length 2.09111   
     axis -90 7.62852e-016 20   XYZ
    dof rx rz
    limits (-45.0 90.0)
           (-70.0 20.0)
  end
  begin
     id 5 
     name ltoes
     direction 1.5357e-011 -4.21957e-011 1   
     length 1.04989   
     axis -90 7.62852e-016 20   XYZ
    dof rx
    limits (-90.0 20.0)
  end
  begin
     id 6 
     name rhipjoint
     direction -0.605402 -0.653903 0.45376   
     length 2.45455  
     axis 0 0 0  XYZ 
  end
  begin
     id 7 
     name rfemur
     direction -0.34202 -0.939693 0   
     length 6.64523   
     axis 0 0 -20   XYZ
    dof rx ry rz
    limits (-160.0 20.0)
           (-70.0 70.0)
           (-70.0 60.0)
  end
  begin
     id 8 
     name rtibia
     direction -0.34202 -0.939693 0   
     length 7.3339   
     axis 0 0 -20   XYZ
    dof rx
    limits (-10.0 170.0)
 end
 begin
     id 9 
     name rfoot
     direction -0.120854 -0.332043 0.93549   
     length 2.23135  
     axis -90 -7.62852e-016 -20   XYZ
    dof rx rz
    limits (-45.0 90.0)
           (-20.0 70.0)
  end
  begin
     id 10 
     name rtoes
     direction -1.53563e-011 -4.21914e-011 1   
     length 1.10614   
     axis -90 -7.62852e-016 -20   XYZ
    dof rx
    limits (-90.0 20.0)
  end
  begin
     id 11 
     name lowerback
     direction 0.0319682 0.998615 -0.0417941   
     length 2.02718   
     axis 0 0 0   XYZ
    dof rx ry rz
    limits (-20.0 45.0)
           (-30.0 30.0)
           (-30.0 30.0)
  end
  begin
     id 12 
     name upperback
     direction 7.63181e-005 0.995808 0.0914691   
     length 1.97539   
     axis 0 0 0   XYZ
    dof rx ry rz
    limits (-20.0 45.0)
           (-30.0 30.0)
           (-30.0 30.0)
  end
  begin
     id 13 
     name thorax
     direction -0.016423 0.993627 0.111514   
     length 2.00349   
     axis 0 0 0   XYZ
    dof rx ry rz
    limits (-20.0 45.0)
           (-30.0 30.0)
           (-30.0 30.0)
  end
  begin
     id 14 
     name lowerneck
     direction -0.174763 0.981668 -0.0760716   
     length 1.71436   
     axis 0 0 0   XYZ
    dof rx ry rz
    limits (-20.0 45.0)
           (-30.0 30.0)
           (-30.0 30.0)
  end
  begin
     id 15 
     name upperneck
     direction 0.345458 0.934587 -0.0848868   
     length 1.72805   
     axis 0 0 0   XYZ
    dof rx ry rz
    limits (-20.0 45.0)
           (-30.0 30.0)
           (-30.0 30.0)
  end
  begin
     id 16
     name head
     direction 0.13001 0.989848 -0.0574291  
     length 1.767  
     axis 0 0 0   XYZ
    dof rx ry rz
    limits (-20.0 45.0)
           (-30.0 30.0)
           (-30.0 30.0)
  end
  begin
     id 17 
     name lclavicle
     direction 0.952951 0.290122 0.0878234  
     length 3.54654  
     axis 0 0 0   XYZ
    dof ry rz
    limits (-20.0 10.0)
           (0.0 20.0)
  end
  begin
     id 18 
     name lhumerus
     direction 1 -4.48957e-011 -4.56525e-028   
     length 5.19807   
     axis 180 -30 -90   XYZ
    dof rx ry rz
    limits (-60.0 90.0)
           (-90.0 90.0)
           (-90.0 90.0)
  end
  begin
     id 19
     name lradius
     direction 1 -4.48979e-011 -2.0317e-027   
     length 3.0937   
     axis 180 -30 -90   XYZ
    dof rx
    limits (-10.0 170.0)
  end
  begin
     id 20
     name lwrist
     direction 1 -4.48953e-011 -3.05809e-027   
     length 1.54685   
     axis 8.48514e-016 90 90   XYZ
    dof ry
    limits (-180.0 0.0)
 end
  begin
     id 21 
     name lhand
     direction 1 -4.48952e-011 -6.11639e-027   
     length 0.672632   
     axis 3.9013e-015 90 90   XYZ
    dof rx rz
    limits (-90.0 90.0)
           (-45.0 45.0)
  end
  begin
     id 22 
     name lfingers
     direction 1 -4.48925e-011 -1.22426e-026   
     length 0.542293   
     axis 7.80276e-015 90 90   XYZ
    dof rx
    limits (0.0 90.0)
  end
  begin
     id 23
     name lthumb
     direction 0.707107 -6.3486e-011 0.707107   
     length 0.778628   
     axis -90 45 5.37419e-014   XYZ
    dof rx rz
    limits (-45.0 45.0)
           (-45.0 45.0)
  end
  begin
     id 24 
     name rclavicle
     direction -0.960732 0.273675 -0.0457849   
     length 3.52079  
     axis 0 0 0   XYZ 
    dof ry rz
    limits (-10.0 20.0)
           (-20.0 0.0)
  end
  begin
     id 25 
     name rhumerus
     direction -1 -4.48976e-011 -1.63613e-027  
     length 5.45222   
     axis 180 30 90   XYZ
    dof rx ry rz
    limits (-90.0 60.0)
           (-90.0 90.0)
           (-90.0 90.0)
  end
  begin
     id 26 
     name rradius
     direction -1 -4.48957e-011 -7.00033e-028   
     length 3.01284   
     axis 180 30 90   XYZ
    dof rx
    limits (-10.0 170.0)
  end
  begin
     id 27 
     name rwrist
     direction -1 -4.48983e-011 -3.05543e-027   
     length 1.50642   
     axis 8.48514e-016 -90 -90   XYZ
    dof ry
    limits (-180.0 0.0)
  end
  begin
     id 28
     name rhand
     direction -1 -4.48984e-011 -6.11072e-027   
     length 0.622296   
     axis 3.9013e-015 -90 -90   XYZ
    dof rx rz
    limits (-90.0 90.0)
           (-45.0 45.0)
  end
  begin
     id 29
     name rfingers
     direction -1 -4.48865e-011 -1.22637e-026   
     length 0.501711   
     axis 7.80276e-015 -90 -90   XYZ
    dof rx
    limits (0.0 90.0)
  end
  begin
     id 30
     name rthumb
     direction -0.707107 -6.34932e-011 0.707107   
     length 0.72036   
     axis -90 -45 -5.37419e-014   XYZ
    dof rx rz
    limits (-45.0 45.0)
           (-45.0 45.0)
  end
:hierarchy
  begin
    root lhipjoint rhipjoint lowerback
    lhipjoint lfemur
    lfemur ltibia
    ltibia lfoot
    lfoot ltoes
    rhipjoint rfemur
    rfemur rtibia
    rtibia rfoot
    rfoot rtoes
    lowerback upperback
    upperback thorax
    thorax lowerneck lclavicle rclavicle
    lowerneck upperneck
    upperneck head
    lclavicle lhumerus
    lhumerus lradius
    lradius lwrist
    lwrist lhand lthumb
    lhand lfingers
    rclavicle rhumerus
    rhumerus rradius
    rradius rwrist
    rwrist rhand rthumb
    rhand rfingers
  end

#!OML:ASF H:\Not Pregnant\Project 1\Capture day 1\Session 1\non-pregnant.ASF
:FULLY-SPECIFIED
:DEGREES
373
root 6.97369 16.1554 4.18218 -172.289 3.66081 -183.026
lowerback 4.28122 -1.67371 -3.64402
upperback -4.32912 -2.40095 0.0809508
thorax -6.76884 -0.953155 2.35964
lowerneck 14.7532 -11.0611 -31.0593
upperneck 1.95284 -19.5498 34.8069
head 5.27944 -10.6562 16.8669
rclavicle -2.66682e-014 4.96962e-015
rhumerus -36.0459 -4.76405 -82.3786
rradius 36.5666
rwrist 14.6098
rhand -8.00492 -2.52211
rfingers 7.12502
rthumb -162.096 148.282
lclavicle -2.66682e-014 4.96962e-015
lhumerus -32.4225 -4.86881 85.341
lradius 45.4943
lwrist 38.0695
lhand -13.9872 -10.8209
lfingers 7.12502
lthumb 12.1414 18.8068
rfemur -58.8111 5.33993 17.4789
rtibia 70.1195
rfoot -11.6884 -1.87518
rtoes -31.291
lfemur -13.8323 -0.96321 -27.673
ltibia 27.9045
lfoot -20.5824 -1.03743
ltoes -46.7013
374
root 6.99405 16.1447 4.07449 -172.187 3.37825 -182.934
lowerback 4.18095 -1.66713 -3.58709
upperback -4.36534 -2.38038 0.0854621
thorax -6.75245 -0.944079 2.32749
lowerneck 14.8274 -11.1384 -31.0196
upperneck 1.84625 -19.6527 34.8553
head 5.27783 -10.7132 16.8625
rclavicle -2.15775e-014 -5.96354e-016
rhumerus -36.1711 -5.29163 -82.0968
rradius 35.6744
rwrist 14.9636
rhand -7.73023 -3.94391
rfingers 7.12502
rthumb -161.832 146.885
lclavicle -2.15775e-014 -5.96354e-016
lhumerus -33.0984 -4.88954 85.5742
lradius 45.5921
lwrist 36.645
lhand -12.321 -10.7178
lfingers 7.12502
lthumb 13.7477 18.808
rfemur -57.6943 5.99894 16.9448
rtibia 65.7271
rfoot -11.2668 -0.931769
rtoes -31.4292
lfemur -13.588 -1.17509 -27.508
ltibia 28.0893
lfoot -20.8462 -0.672926
ltoes -47.0857
375
root 7.01548 16.1325 3.96485 -172.086 3.10168 -182.87
lowerback 4.06422 -1.65286 -3.55311
upperback -4.40029 -2.35096 0.0741305
thorax -6.72558 -0.929947 2.2902
lowerneck 14.9273 -11.2113 -30.9853
upperneck 1.70767 -19.7514 34.9301
head 5.26579 -10.7714 16.8745
rclavicle 3.58434e-015 2.78299e-015
rhumerus -36.3549 -5.72046 -81.9184
rradius 34.9553
rwrist 15.0858
rhand -7.65314 -6.06435
rfingers 7.12502
rthumb -161.757 144.771
lclavicle 3.58434e-015 2.78299e-015
lhumerus -33.8005 -4.89979 85.773
lradius 45.7073
lwrist 35.2395
lhand -10.6127 -10.6891
lfingers 7.12502
lthumb 15.3935 18.7178
rfemur -56.5613 6.69232 16.3581
rtibia 61.4388
rfoot -10.9434 0.0969506
rtoes -31.2383
lfemur -13.331 -1.35082 -27.3653
ltibia 28.2561
lfoot -21.1219 -0.26817
ltoes -47.6655
376
root 7.03534 16.1196 3.85324 -172.008 2.79861 -182.846
lowerback 3.9306 -1.64764 -3.52134
upperback -4.41214 -2.3347 0.0425151
thorax -6.66421 -0.924179 2.23322
lowerneck 15.0162 -11.29 -30.9471
upperneck 1.54854 -19.8531 35.0123
head 5.2517 -10.8309 16.8867
rclavicle -2.55205e-014 -1.2921e-014
rhumerus -36.5652 -6.04364 -81.8373
rradius 34.3868
rwrist 14.9899
rhand -7.79978 -8.75137
rfingers 7.12502
rthumb -161.899 142.071
lclavicle -2.55205e-014 -1.2921e-014
lhumerus -34.483 -4.90724 85.9358
lradius 45.8134
lwrist 33.9233
lhand -8.90881 -10.7192
lfingers 7.12502
lthumb 17.0342 18.5539
rfemur -55.4134 7.34976 15.722
rtibia 57.3251
rfoot -10.6952 1.16954
rtoes -30.95
lfemur -13.0322 -1.49763 -27.2674
ltibia 28.405
lfoot -21.42 0.0340864
ltoes -48.1354
377
root 7.05668 16.1049 3.73907 -171.928 2.49501 -182.847
lowerback 3.77722 -1.63796 -3.51512
upperback -4.4318 -2.31312 4.30679e-005
thorax -6.59961 -0.914279 2.17823
lowerneck 15.1838 -11.3352 -30.9375
upperneck 1.33543 -19.9209 35.1485
head 5.2077 -10.8827 16.9452
rclavicle 7.88771e-015 -6.55989e-015
rhumerus -36.8433 -6.53003 -81.6485
rradius 33.8026
rwrist 15.1204
rhand -7.83683 -10.8691
rfingers 7.12502
rthumb -161.934 139.95
lclavicle 7.88771e-015 -6.55989e-015
lhumerus -35.2082 -4.90824 86.0699
lradius 45.933
lwrist 32.7005
lhand -7.21627 -10.7592
lfingers 7.12502
lthumb 18.6628 18.3655
rfemur -54.3036 8.04168 15.0551
rtibia 53.4515
rfoot -10.5648 2.14348
rtoes -30.3771
lfemur -12.725 -1.59665 -27.1837
ltibia 28.5404
lfoot -21.7462 0.254741
ltoes -48.5502
